<svg xmlns="http://www.w3.org/2000/svg" shape-rendering="geometricPrecision" text-rendering="geometricPrecision" image-rendering="optimizeQuality" fill-rule="evenodd" clip-rule="evenodd" viewBox="0 0 203.55 141.6"><g fill-rule="nonzero"><path fill="#ED2939" d="M203.55 11.19v119.22c0 6.16-5.04 11.19-11.19 11.19H11.19C5.05 141.6.02 136.59 0 130.45V11.15C.02 5.01 5.05 0 11.19 0h181.17c6.15 0 11.19 5.03 11.19 11.19z"/><path fill="#FAE042" d="M135.7 0v141.6H11.19C5.05 141.6.02 136.59 0 130.45V11.15C.02 5.01 5.05 0 11.19 0H135.7z"/><path d="M67.85 0v141.6H11.19C5.05 141.6.02 136.59 0 130.45V11.15C.02 5.01 5.05 0 11.19 0h56.66z"/></g></svg>